<svg width="128" height="30" viewBox="0 0 128 30" fill="none" xmlns="http://www.w3.org/2000/svg">
<path d="M12.9667 20.666C13.2551 21.6871 13.5436 22.7075 13.832 23.7286C13.8341 23.7568 13.4495 23.8696 12.6467 24.0126C11.9702 24.0905 10.9593 24.2496 9.62425 24.2912C8.63257 24.3644 7.84761 24.3939 7.30163 24.4617C6.88615 24.5201 6.73437 24.5879 6.76665 24.6698C6.79893 24.7517 6.99053 24.8504 7.41426 24.9035C7.94444 24.9773 8.70811 25.0055 9.6215 24.9384C11.5266 24.7981 13.9687 24.4778 16.8805 23.785C18.3227 23.4259 19.6056 23.0492 20.7346 22.7129C21.8609 22.3484 22.9096 21.9899 23.7776 21.6724C24.7741 21.3172 25.5591 20.95 26.1373 20.6257C26.64 20.3351 26.8879 20.1484 26.8529 20.0383C26.8467 19.9544 26.5356 20.0054 25.9959 20.1578C25.3805 20.3438 24.5907 20.6553 23.597 21.0386C23.3683 21.14 23.1383 21.2132 22.9096 21.3145C21.7352 21.7388 20.9674 21.9926 20.5842 22.1336C20.5059 22.1389 20.4558 22.1711 20.4036 22.1752C20.1989 22.2463 20.0945 22.2544 20.0643 22.2C19.7759 21.1789 19.4875 20.1585 19.199 19.1374C19.1688 19.083 19.2663 18.9917 19.4971 18.9186C19.5211 18.8883 19.5733 18.885 19.6495 18.8507C20.0066 18.7118 20.6975 18.4923 21.7462 18.1331C22.9467 17.7068 23.7625 17.3933 24.1471 17.2805C24.658 17.1019 24.9973 17.0771 25.1367 17.1798C25.2521 17.3121 25.2912 17.4785 25.2775 17.6484C25.3166 17.8149 25.3015 17.9565 25.2857 18.0982C25.1683 18.2754 25.5055 18.2231 26.2211 17.9733C26.7582 17.7927 27.4957 17.4853 28.3789 17.0261C29.2621 16.5669 29.9646 16.1493 30.5127 15.7707C31.1328 15.3028 31.4006 15.0295 31.2914 14.9812C30.9721 14.9201 30.7503 14.7677 30.6239 14.4952C30.5044 14.3065 30.3829 14.0903 30.3066 13.7862C30.3197 13.6164 30.0869 13.6614 29.5045 13.9299C29.1 14.1286 28.3192 14.5522 27.1833 15.1423C24.8318 16.301 22.2091 17.3389 19.4682 18.2163C18.1091 18.6259 16.669 19.0139 15.2014 19.3751C10.7148 20.4089 7.01182 20.7097 4.1762 20.3552C2.69143 20.1545 1.74371 19.7738 1.30624 19.5523C0.921661 19.3274 0.780189 19.1965 0.847491 19.3892C0.910673 19.5254 0.897624 19.6953 0.909986 19.8631C0.898998 20.0612 0.883889 20.2028 0.861913 20.2612C0.829635 20.1793 0.863973 20.6271 1.4072 21.2071C1.92021 21.7328 2.62894 22.0745 3.56568 22.3155C4.50241 22.5565 5.29218 22.5827 5.81618 22.5726C6.4425 22.5263 6.72545 22.4498 6.55788 22.3209C6.50156 22.2685 6.44456 22.2168 6.38619 22.1362C6.35116 22.0261 6.34498 21.9422 6.31064 21.8321C6.27356 21.6938 6.29142 21.5804 6.33674 21.4924C6.45418 21.3152 6.71102 21.2393 7.10042 21.1829C7.48981 21.1259 8.45951 21.1111 9.89002 20.9493C11.2168 20.7956 12.0471 20.6781 12.4626 20.619C12.7497 20.5975 12.9344 20.6123 12.9646 20.6667" fill="#28C291"/>
<path d="M35.7209 7.38189C35.0145 6.59413 33.1452 7.85467 31.7028 8.94262C31.606 9.03395 31.3023 9.11253 30.7624 9.15282C30.1988 9.22267 29.5304 9.27303 28.7334 9.33213C27.9107 9.39324 27.1651 9.44899 26.4195 9.50473C25.7234 9.5289 25.1557 9.54301 24.7403 9.51816C22.8473 9.0991 20.9624 8.79152 19.1053 8.51013C18.9747 8.492 19.0241 8.46043 19.2507 8.38723C19.403 8.34761 19.405 8.37581 19.2568 8.47051C18.6994 8.96075 18.1141 9.42481 17.533 9.94461C16.6839 10.6806 15.8111 11.4462 14.9661 12.238C14.7239 12.4523 14.2523 12.7115 13.6306 13.0385C13.0325 13.3354 12.3593 13.6658 11.5603 14.0338C10.7863 14.3998 10.1091 14.6745 9.48329 14.9451C9.00564 15.1211 8.62609 15.2332 8.4441 15.2191C6.58492 14.9095 4.74062 14.7954 3.01405 14.8679C2.91121 14.8753 2.76102 14.9431 2.59188 15.0956C2.44845 15.2467 2.15888 15.52 1.76174 16.0821C1.27056 16.7631 1.01076 17.4273 0.962728 17.8228C0.936342 18.1613 0.970847 18.2707 0.936342 18.1613C0.930253 18.078 0.803737 17.7792 0.836888 17.1882C0.878158 16.7087 1.11428 16.0747 1.55877 15.4528C2.56887 14.1164 4.0573 12.9405 5.85762 11.7975C7.58555 10.7156 8.93122 10.0547 9.80398 9.62561C10.4772 9.2952 11.0556 9.08365 11.4372 8.99903C11.7159 8.92247 11.8979 8.93658 11.9297 9.01851C11.9615 9.10044 11.8675 9.21931 11.672 9.37377C11.2281 9.65919 10.6558 9.95401 9.88246 10.32C9.15787 10.6545 8.68428 10.8855 8.4874 11.0124C8.28984 11.1393 8.19377 11.2307 8.24722 11.2542C9.50426 11.4684 10.7897 11.7088 12.0529 12.0063C12.1022 11.9748 12.0035 12.0379 11.8046 12.1373C11.5793 12.238 11.4764 12.2461 11.5238 12.1863C12.8661 10.7968 14.2686 9.51547 15.6731 8.26165C15.8896 8.04943 16.2861 7.82378 16.8882 7.58269C17.3638 7.3792 17.9944 7.16363 18.7785 6.93731C20.4246 6.47795 21.4996 6.34162 22.0524 6.46855C23.8899 6.8359 25.7295 7.23078 27.5541 7.7667C27.6076 7.79088 27.5562 7.79423 27.4039 7.83386C27.1211 7.85535 26.9926 7.86475 26.9906 7.83654C27.9317 6.95343 28.9289 6.12269 29.9045 5.34904C30.0053 5.31345 30.0033 5.28591 29.9004 5.2933C29.5364 5.26442 28.8125 5.26241 27.6813 5.34703C26.8843 5.4068 26.3167 5.4209 25.9527 5.39202C25.5887 5.36314 25.4047 5.32084 25.3979 5.23756C25.3661 5.15563 25.5136 5.06094 25.8161 4.95416C26.2213 4.83999 26.8079 4.73993 27.6583 4.70433C28.843 4.64389 30.3382 4.58815 32.0904 4.84939C33.3989 5.05959 35.1363 5.46254 35.6058 6.88425C35.7554 7.48934 35.5977 8.14547 35.3041 8.70018C34.8982 9.48726 34.4909 9.90968 34.2358 10.2932C34.0491 10.5591 33.9848 10.7324 33.9909 10.8156C34.0227 10.8976 34.1749 10.8579 34.3941 10.6733C34.7135 10.453 35.0977 10.0601 35.4814 9.33146C35.8636 8.5746 35.8406 7.93191 35.8237 7.70894C35.8196 7.6532 35.7899 7.59948 35.7851 7.54374C35.7533 7.46181 35.7513 7.43427 35.7209 7.38055" fill="#28C291"/>
<path d="M55.8643 15.8223V17.5293H49.1846V23.1514H47.1436V17.5293H40.5381V15.8223H55.8643ZM42.1523 10.7383C42.1431 8.4375 44.5923 6.98096 48.1641 6.97168C51.7358 6.98096 54.2036 8.4375 54.2129 10.7383C54.2036 13.0112 51.7358 14.4585 48.1641 14.4492C44.5923 14.4585 42.1431 13.0112 42.1523 10.7383ZM44.2676 10.7383C44.2583 12.0464 45.7983 12.8164 48.1641 12.8164C50.5391 12.8164 52.0791 12.0464 52.0791 10.7383C52.0791 9.4209 50.5391 8.6416 48.1641 8.6416C45.7983 8.6416 44.2583 9.4209 44.2676 10.7383ZM64.4454 7.52832V9.17969H60.048V10.9053H63.8146V12.4824H60.048V14.3379C62.0519 14.3286 63.4435 14.2451 65.0763 13.9482L65.2989 15.5996C63.36 15.9243 61.7643 15.98 59.1759 15.9707H58.0626V7.52832H64.4454ZM60.1593 19.1621V17.5107H71.7003V23.1514H69.6407V19.1621H60.1593ZM64.5382 12.3711V10.7012H66.4308V6.73047H68.3976V16.6943H66.4308V12.3711H64.5382ZM69.7335 16.8057V6.39648H71.7003V16.8057H69.7335ZM88.5198 6.37793V23.1514H86.4231V13.9668H83.9739V12.1855H86.4231V6.37793H88.5198ZM73.7873 17.9746C75.9119 16.3232 76.3201 13.4287 76.3293 10.9795V7.76953H78.259V10.9795C78.2497 12.8257 78.4724 15.0986 79.6135 16.8242C80.7268 15.1265 80.9309 12.8535 80.9309 10.9795V7.76953H82.9162V10.9795C82.8977 13.4658 83.2873 16.3604 85.4397 17.9746L84.1409 19.4404C82.9905 18.5776 82.3039 17.251 81.905 15.7388C81.5061 17.2974 80.8103 18.689 79.6135 19.5703C78.4075 18.6982 77.7117 17.3159 77.3035 15.7759C76.9138 17.2417 76.2551 18.522 75.1789 19.3662L73.7873 17.9746ZM100.051 8.0293C100.033 13.0854 98.5111 17.5015 92.2767 20.5537L91.182 18.958C94.0672 17.5479 95.8578 15.8687 96.8876 13.8555L91.5531 14.3379L91.2933 12.5752L97.5462 12.1855C97.7782 11.4062 97.9173 10.5713 97.9916 9.69922H92.1468V8.0293H100.051ZM102.89 23.1514V6.37793H104.968V23.1514H102.89ZM121.398 15.1729V16.8057H109.634V7.69531H121.249V9.36523H111.731V11.3877H120.86V13.002H111.731V15.1729H121.398ZM107.76 21.1104V19.4219H123.086V21.1104H107.76Z" fill="#101010"/>
</svg>
